<svg id="mermaidChart0" width="1200" height="950.7042253521126" style="width: 1192; height: 950.7042253521126;" version="1.1" xmlns="http://www.w3.org/2000/svg" xmlns:xlink="http://www.w3.org/1999/xlink"><style type="text/css" title="mermaid-svg-internal-css">/* Flowchart variables */
/* Sequence Diagram variables */
/* Gantt chart variables */
.mermaid .label {
  color: #333;
}
.node rect,
.node circle,
.node ellipse,
.node polygon {
  fill: #ECECFF;
  stroke: #CCCCFF;
  stroke-width: 1px;
}
.edgePath .path {
  stroke: #333333;
}
.edgeLabel {
  background-color: #e8e8e8;
}
.cluster rect {
  fill: #ffffde !important;
  rx: 4 !important;
  stroke: #aaaa33 !important;
  stroke-width: 1px !important;
}
.cluster text {
  fill: #333;
}
.actor {
  stroke: #CCCCFF;
  fill: #ECECFF;
}
text.actor {
  fill: black;
  stroke: none;
}
.actor-line {
  stroke: grey;
}
.messageLine0 {
  stroke-width: 1.5;
  stroke-dasharray: "2 2";
  marker-end: "url(#arrowhead)";
  stroke: #333;
}
.messageLine1 {
  stroke-width: 1.5;
  stroke-dasharray: "2 2";
  stroke: #333;
}
#arrowhead {
  fill: #333;
}
#crosshead path {
  fill: #333 !important;
  stroke: #333 !important;
}
.messageText {
  fill: #333;
  stroke: none;
}
.labelBox {
  stroke: #CCCCFF;
  fill: #ECECFF;
}
.labelText {
  fill: black;
  stroke: none;
}
.loopText {
  fill: black;
  stroke: none;
}
.loopLine {
  stroke-width: 2;
  stroke-dasharray: "2 2";
  marker-end: "url(#arrowhead)";
  stroke: #CCCCFF;
}
.note {
  stroke: #aaaa33;
  fill: #fff5ad;
}
.noteText {
  fill: black;
  stroke: none;
  font-family: 'trebuchet ms', verdana, arial;
  font-size: 14px;
}
/** Section styling */
.section {
  stroke: none;
  opacity: 0.2;
}
.section0 {
  fill: rgba(102, 102, 255, 0.49);
}
.section2 {
  fill: #fff400;
}
.section1,
.section3 {
  fill: white;
  opacity: 0.2;
}
.sectionTitle0 {
  fill: #333;
}
.sectionTitle1 {
  fill: #333;
}
.sectionTitle2 {
  fill: #333;
}
.sectionTitle3 {
  fill: #333;
}
.sectionTitle {
  text-anchor: start;
  font-size: 11px;
  text-height: 14px;
}
/* Grid and axis */
.grid .tick {
  stroke: lightgrey;
  opacity: 0.3;
  shape-rendering: crispEdges;
}
.grid path {
  stroke-width: 0;
}
/* Today line */
.today {
  fill: none;
  stroke: red;
  stroke-width: 2px;
}
/* Task styling */
/* Default task */
.task {
  stroke-width: 2;
}
.taskText {
  text-anchor: middle;
  font-size: 11px;
}
.taskTextOutsideRight {
  fill: black;
  text-anchor: start;
  font-size: 11px;
}
.taskTextOutsideLeft {
  fill: black;
  text-anchor: end;
  font-size: 11px;
}
/* Specific task settings for the sections*/
.taskText0,
.taskText1,
.taskText2,
.taskText3 {
  fill: white;
}
.task0,
.task1,
.task2,
.task3 {
  fill: #8a90dd;
  stroke: #534fbc;
}
.taskTextOutside0,
.taskTextOutside2 {
  fill: black;
}
.taskTextOutside1,
.taskTextOutside3 {
  fill: black;
}
/* Active task */
.active0,
.active1,
.active2,
.active3 {
  fill: #bfc7ff;
  stroke: #534fbc;
}
.activeText0,
.activeText1,
.activeText2,
.activeText3 {
  fill: black !important;
}
/* Completed task */
.done0,
.done1,
.done2,
.done3 {
  stroke: grey;
  fill: lightgrey;
  stroke-width: 2;
}
.doneText0,
.doneText1,
.doneText2,
.doneText3 {
  fill: black !important;
}
/* Tasks on the critical line */
.crit0,
.crit1,
.crit2,
.crit3 {
  stroke: #ff8888;
  fill: red;
  stroke-width: 2;
}
.activeCrit0,
.activeCrit1,
.activeCrit2,
.activeCrit3 {
  stroke: #ff8888;
  fill: #bfc7ff;
  stroke-width: 2;
}
.doneCrit0,
.doneCrit1,
.doneCrit2,
.doneCrit3 {
  stroke: #ff8888;
  fill: lightgrey;
  stroke-width: 2;
  cursor: pointer;
  shape-rendering: crispEdges;
}
.doneCritText0,
.doneCritText1,
.doneCritText2,
.doneCritText3 {
  fill: black !important;
}
.activeCritText0,
.activeCritText1,
.activeCritText2,
.activeCritText3 {
  fill: black !important;
}
.titleText {
  text-anchor: middle;
  font-size: 18px;
  fill: black;
}
/*


*/
.node text {
  font-family: 'trebuchet ms', verdana, arial;
  font-size: 14px;
}
div.mermaidTooltip {
  position: absolute;
  text-align: center;
  max-width: 200px;
  padding: 2px;
  font-family: 'trebuchet ms', verdana, arial;
  font-size: 12px;
  background: #ffffde;
  border: 1px solid #aaaa33;
  border-radius: 2px;
  pointer-events: none;
  z-index: 100;
}
</style><g/><defs><marker id="extensionStart" class="extension" refX="0" refY="7" markerWidth="190" markerHeight="240" orient="auto"><path d="M 1,7 L18,13 V 1 Z"/></marker></defs><defs><marker id="extensionEnd" refX="19" refY="7" markerWidth="20" markerHeight="28" orient="auto"><path d="M 1,1 V 13 L18,7 Z"/></marker></defs><defs><marker id="compositionStart" class="extension" refX="0" refY="7" markerWidth="190" markerHeight="240" orient="auto"><path d="M 18,7 L9,13 L1,7 L9,1 Z"/></marker></defs><defs><marker id="compositionEnd" refX="19" refY="7" markerWidth="20" markerHeight="28" orient="auto"><path d="M 18,7 L9,13 L1,7 L9,1 Z"/></marker></defs><defs><marker id="aggregationStart" class="extension" refX="0" refY="7" markerWidth="190" markerHeight="240" orient="auto"><path d="M 18,7 L9,13 L1,7 L9,1 Z"/></marker></defs><defs><marker id="aggregationEnd" refX="19" refY="7" markerWidth="20" markerHeight="28" orient="auto"><path d="M 18,7 L9,13 L1,7 L9,1 Z"/></marker></defs><defs><marker id="dependencyStart" class="extension" refX="0" refY="7" markerWidth="190" markerHeight="240" orient="auto"><path d="M 5,7 L9,13 L1,7 L9,1 Z"/></marker></defs><defs><marker id="dependencyEnd" refX="19" refY="7" markerWidth="20" markerHeight="28" orient="auto"><path d="M 18,7 L9,13 L14,7 L9,1 Z"/></marker></defs><g id="classId0" class="classGroup" transform="translate(8,297 )"><rect x="0" y="0" width="52" height="49"/><text x="5" y="19">Dice</text><line x1="0" y1="29" y2="29" x2="52"/><text x="5" y="43" fill="white" class="classText"/><line x1="0" y1="39" y2="39" x2="52"/><text x="5" y="53" fill="white" class="classText"/></g><g id="classId1" class="classGroup" transform="translate(12.5,396 )"><rect x="0" y="0" width="43" height="49"/><text x="5" y="19">Die</text><line x1="0" y1="29" y2="29" x2="43"/><text x="5" y="43" fill="white" class="classText"/><line x1="0" y1="39" y2="39" x2="43"/><text x="5" y="53" fill="white" class="classText"/></g><g id="classId2" class="classGroup" transform="translate(6,198 )"><rect x="0" y="0" width="56" height="49"/><text x="5" y="19">Turn</text><line x1="0" y1="29" y2="29" x2="56"/><text x="5" y="43" fill="white" class="classText"/><line x1="0" y1="39" y2="39" x2="56"/><text x="5" y="53" fill="white" class="classText"/></g><g id="classId3" class="classGroup" transform="translate(0,99 )"><rect x="0" y="0" width="68" height="49"/><text x="5" y="19">Player</text><line x1="0" y1="29" y2="29" x2="68"/><text x="5" y="43" fill="white" class="classText"/><line x1="0" y1="39" y2="39" x2="68"/><text x="5" y="53" fill="white" class="classText"/></g><g id="classId4" class="classGroup" transform="translate(2.5,0 )"><rect x="0" y="0" width="63" height="49"/><text x="5" y="19">Game</text><line x1="0" y1="29" y2="29" x2="63"/><text x="5" y="43" fill="white" class="classText"/><line x1="0" y1="39" y2="39" x2="63"/><text x="5" y="53" fill="white" class="classText"/></g><path d="M34,346L33.99999999999999,350.16666666666663C34,354.3333333333333,34,362.66666666666663,33.99999999999999,371C34,379.3333333333333,34,387.66666666666663,33.99999999999999,391.8333333333333L34,396" id="edge0" class="relation" marker-end="url(#dependencyEnd)"/><g class="classLabel"><rect class="box" x="3.5" y="366" width="61" height="24"/><text class="label" x="34" y="383.5" fill="red" text-anchor="middle">Rolls a</text></g><path d="M34,247L33.99999999999999,251.16666666666663C34,255.33333333333331,34,263.66666666666663,33.99999999999999,272C34,280.3333333333333,34,288.66666666666663,33.99999999999999,292.8333333333333L34,297" id="edge1" class="relation" marker-end="url(#dependencyEnd)"/><g class="classLabel"><rect class="box" x="-27.5" y="267" width="123" height="24"/><text class="label" x="34" y="284.5" fill="red" text-anchor="middle">Gets Last Roll</text></g><path d="M34,148L33.99999999999999,152.16666666666666C34,156.33333333333331,34,164.66666666666666,33.99999999999999,173C34,181.33333333333331,34,189.66666666666666,33.99999999999999,193.83333333333334L34,198" id="edge2" class="relation" marker-end="url(#dependencyEnd)"/><g class="classLabel"><rect class="box" x="-20.5" y="168" width="109" height="24"/><text class="label" x="34" y="185.5" fill="red" text-anchor="middle">Rolls/Passes</text></g><path d="M34,49L33.99999999999999,53.16666666666666C34,57.33333333333333,34,65.66666666666666,33.99999999999999,74C34,82.33333333333333,34,90.66666666666666,33.99999999999999,94.83333333333333L34,99" id="edge3" class="relation" marker-end="url(#dependencyEnd)"/><g class="classLabel"><rect class="box" x="15.5" y="69" width="37" height="24"/><text class="label" x="34" y="86.5" fill="red" text-anchor="middle">Has</text></g></svg>
