<svg id="mermaidChart0" width="1200" height="1669.5013765677577" viewBox="-95 -10 1095 1516" style="width: 1192; height: 1669.5013765677577;" version="1.1" xmlns="http://www.w3.org/2000/svg" xmlns:xlink="http://www.w3.org/1999/xlink"><style type="text/css" title="mermaid-svg-internal-css">/* Flowchart variables */
/* Sequence Diagram variables */
/* Gantt chart variables */
.mermaid .label {
  color: #333;
}
.node rect,
.node circle,
.node ellipse,
.node polygon {
  fill: #ECECFF;
  stroke: #CCCCFF;
  stroke-width: 1px;
}
.edgePath .path {
  stroke: #333333;
}
.edgeLabel {
  background-color: #e8e8e8;
}
.cluster rect {
  fill: #ffffde !important;
  rx: 4 !important;
  stroke: #aaaa33 !important;
  stroke-width: 1px !important;
}
.cluster text {
  fill: #333;
}
.actor {
  stroke: #CCCCFF;
  fill: #ECECFF;
}
text.actor {
  fill: black;
  stroke: none;
}
.actor-line {
  stroke: grey;
}
.messageLine0 {
  stroke-width: 1.5;
  stroke-dasharray: "2 2";
  marker-end: "url(#arrowhead)";
  stroke: #333;
}
.messageLine1 {
  stroke-width: 1.5;
  stroke-dasharray: "2 2";
  stroke: #333;
}
#arrowhead {
  fill: #333;
}
#crosshead path {
  fill: #333 !important;
  stroke: #333 !important;
}
.messageText {
  fill: #333;
  stroke: none;
}
.labelBox {
  stroke: #CCCCFF;
  fill: #ECECFF;
}
.labelText {
  fill: black;
  stroke: none;
}
.loopText {
  fill: black;
  stroke: none;
}
.loopLine {
  stroke-width: 2;
  stroke-dasharray: "2 2";
  marker-end: "url(#arrowhead)";
  stroke: #CCCCFF;
}
.note {
  stroke: #aaaa33;
  fill: #fff5ad;
}
.noteText {
  fill: black;
  stroke: none;
  font-family: 'trebuchet ms', verdana, arial;
  font-size: 14px;
}
/** Section styling */
.section {
  stroke: none;
  opacity: 0.2;
}
.section0 {
  fill: rgba(102, 102, 255, 0.49);
}
.section2 {
  fill: #fff400;
}
.section1,
.section3 {
  fill: white;
  opacity: 0.2;
}
.sectionTitle0 {
  fill: #333;
}
.sectionTitle1 {
  fill: #333;
}
.sectionTitle2 {
  fill: #333;
}
.sectionTitle3 {
  fill: #333;
}
.sectionTitle {
  text-anchor: start;
  font-size: 11px;
  text-height: 14px;
}
/* Grid and axis */
.grid .tick {
  stroke: lightgrey;
  opacity: 0.3;
  shape-rendering: crispEdges;
}
.grid path {
  stroke-width: 0;
}
/* Today line */
.today {
  fill: none;
  stroke: red;
  stroke-width: 2px;
}
/* Task styling */
/* Default task */
.task {
  stroke-width: 2;
}
.taskText {
  text-anchor: middle;
  font-size: 11px;
}
.taskTextOutsideRight {
  fill: black;
  text-anchor: start;
  font-size: 11px;
}
.taskTextOutsideLeft {
  fill: black;
  text-anchor: end;
  font-size: 11px;
}
/* Specific task settings for the sections*/
.taskText0,
.taskText1,
.taskText2,
.taskText3 {
  fill: white;
}
.task0,
.task1,
.task2,
.task3 {
  fill: #8a90dd;
  stroke: #534fbc;
}
.taskTextOutside0,
.taskTextOutside2 {
  fill: black;
}
.taskTextOutside1,
.taskTextOutside3 {
  fill: black;
}
/* Active task */
.active0,
.active1,
.active2,
.active3 {
  fill: #bfc7ff;
  stroke: #534fbc;
}
.activeText0,
.activeText1,
.activeText2,
.activeText3 {
  fill: black !important;
}
/* Completed task */
.done0,
.done1,
.done2,
.done3 {
  stroke: grey;
  fill: lightgrey;
  stroke-width: 2;
}
.doneText0,
.doneText1,
.doneText2,
.doneText3 {
  fill: black !important;
}
/* Tasks on the critical line */
.crit0,
.crit1,
.crit2,
.crit3 {
  stroke: #ff8888;
  fill: red;
  stroke-width: 2;
}
.activeCrit0,
.activeCrit1,
.activeCrit2,
.activeCrit3 {
  stroke: #ff8888;
  fill: #bfc7ff;
  stroke-width: 2;
}
.doneCrit0,
.doneCrit1,
.doneCrit2,
.doneCrit3 {
  stroke: #ff8888;
  fill: lightgrey;
  stroke-width: 2;
  cursor: pointer;
  shape-rendering: crispEdges;
}
.doneCritText0,
.doneCritText1,
.doneCritText2,
.doneCritText3 {
  fill: black !important;
}
.activeCritText0,
.activeCritText1,
.activeCritText2,
.activeCritText3 {
  fill: black !important;
}
.titleText {
  text-anchor: middle;
  font-size: 18px;
  fill: black;
}
/*


*/
.node text {
  font-family: 'trebuchet ms', verdana, arial;
  font-size: 14px;
}
div.mermaidTooltip {
  position: absolute;
  text-align: center;
  max-width: 200px;
  padding: 2px;
  font-family: 'trebuchet ms', verdana, arial;
  font-size: 12px;
  background: #ffffde;
  border: 1px solid #aaaa33;
  border-radius: 2px;
  pointer-events: none;
  z-index: 100;
}
</style><g/><g><line id="actor0" x1="75" y1="5" x2="75" y2="1505" class="actor-line" stroke-width="0.5px" stroke="#999"/><rect x="0" y="0" fill="#eaeaea" stroke="#666" width="150" height="65" rx="3" ry="3" class="actor"/><text x="75" y="32.5" dominant-baseline="central" alignment-baseline="central" class="actor" style="text-anchor: middle;"><tspan x="75" dy="0">SkunkApp</tspan></text></g><g><line id="actor1" x1="275" y1="5" x2="275" y2="1505" class="actor-line" stroke-width="0.5px" stroke="#999"/><rect x="200" y="0" fill="#eaeaea" stroke="#666" width="150" height="65" rx="3" ry="3" class="actor"/><text x="275" y="32.5" dominant-baseline="central" alignment-baseline="central" class="actor" style="text-anchor: middle;"><tspan x="275" dy="0">Player</tspan></text></g><g><line id="actor2" x1="475" y1="5" x2="475" y2="1505" class="actor-line" stroke-width="0.5px" stroke="#999"/><rect x="400" y="0" fill="#eaeaea" stroke="#666" width="150" height="65" rx="3" ry="3" class="actor"/><text x="475" y="32.5" dominant-baseline="central" alignment-baseline="central" class="actor" style="text-anchor: middle;"><tspan x="475" dy="0">Turn</tspan></text></g><g><line id="actor3" x1="675" y1="5" x2="675" y2="1505" class="actor-line" stroke-width="0.5px" stroke="#999"/><rect x="600" y="0" fill="#eaeaea" stroke="#666" width="150" height="65" rx="3" ry="3" class="actor"/><text x="675" y="32.5" dominant-baseline="central" alignment-baseline="central" class="actor" style="text-anchor: middle;"><tspan x="675" dy="0">Dice</tspan></text></g><g><line id="actor4" x1="875" y1="5" x2="875" y2="1505" class="actor-line" stroke-width="0.5px" stroke="#999"/><rect x="800" y="0" fill="#eaeaea" stroke="#666" width="150" height="65" rx="3" ry="3" class="actor"/><text x="875" y="32.5" dominant-baseline="central" alignment-baseline="central" class="actor" style="text-anchor: middle;"><tspan x="875" dy="0">Die</tspan></text></g><defs><marker id="arrowhead" refX="5" refY="2" markerWidth="6" markerHeight="4" orient="auto"><path d="M 0,0 V 4 L6,2 Z"/></marker></defs><defs><marker id="crosshead" markerWidth="15" markerHeight="8" orient="auto" refX="16" refY="4"><path fill="black" stroke="#000000" stroke-width="1px" d="M 9,2 V 6 L16,4 Z" style="stroke-dasharray: 0px, 0px;"/><path fill="none" stroke="#000000" stroke-width="1px" d="M 0,1 L 6,7 M 6,1 L 0,7" style="stroke-dasharray: 0px, 0px;"/></marker></defs><g><text x="175" y="93" class="messageText" style="text-anchor: middle;">NewPlayer("Player 1")</text><line x1="75" y1="100" x2="275" y2="100" class="messageLine0" stroke-width="2" stroke="black" marker-end="url(#arrowhead)" style="fill: none;"/></g><g><text x="175" y="128" class="messageText" style="text-anchor: middle;">p { "Player 1", 0 pts, 50 chips}</text><line x1="275" y1="135" x2="75" y2="135" class="messageLine0" stroke-width="2" stroke="black" marker-end="url(#arrowhead)" style="fill: none;"/></g><g><text x="175" y="188" class="messageText" style="text-anchor: middle;">p.NewTurn()</text><line x1="75" y1="195" x2="275" y2="195" class="messageLine0" stroke-width="2" stroke="black" marker-end="url(#arrowhead)" style="fill: none;"/></g><g><rect x="70" y="197" fill="#f4f4f4" stroke="#666" width="10" height="278" rx="0" ry="0"/></g><g><text x="375" y="223" class="messageText" style="text-anchor: middle;">NewTurn()</text><line x1="275" y1="230" x2="475" y2="230" class="messageLine0" stroke-width="2" stroke="black" marker-end="url(#arrowhead)" style="fill: none;"/></g><g><rect x="270" y="232" fill="#f4f4f4" stroke="#666" width="10" height="243" rx="0" ry="0"/></g><g><text x="575" y="258" class="messageText" style="text-anchor: middle;">NewDice()</text><line x1="475" y1="265" x2="675" y2="265" class="messageLine0" stroke-width="2" stroke="black" marker-end="url(#arrowhead)" style="fill: none;"/></g><g><rect x="470" y="267" fill="#f4f4f4" stroke="#666" width="10" height="173" rx="0" ry="0"/></g><g><text x="775" y="293" class="messageText" style="text-anchor: middle;">NewDie()</text><line x1="675" y1="300" x2="875" y2="300" class="messageLine0" stroke-width="2" stroke="black" marker-end="url(#arrowhead)" style="fill: none;"/></g><g><text x="775" y="328" class="messageText" style="text-anchor: middle;">die1</text><line x1="875" y1="335" x2="675" y2="335" class="messageLine0" stroke-width="2" stroke="black" marker-end="url(#arrowhead)" style="fill: none;"/></g><g><text x="775" y="363" class="messageText" style="text-anchor: middle;">NewDie()</text><line x1="675" y1="370" x2="875" y2="370" class="messageLine0" stroke-width="2" stroke="black" marker-end="url(#arrowhead)" style="fill: none;"/></g><g><text x="775" y="398" class="messageText" style="text-anchor: middle;">die2</text><line x1="875" y1="405" x2="675" y2="405" class="messageLine0" stroke-width="2" stroke="black" marker-end="url(#arrowhead)" style="fill: none;"/></g><g><text x="577.5" y="433" class="messageText" style="text-anchor: middle;">dice {die1, die2}</text><line x1="675" y1="440" x2="480" y2="440" class="messageLine0" stroke-width="2" stroke="black" marker-end="url(#arrowhead)" style="fill: none;"/></g><g><text x="377.5" y="468" class="messageText" style="text-anchor: middle;">t { 0 pts, 0 chips, NotStarted}</text><line x1="475" y1="475" x2="280" y2="475" class="messageLine0" stroke-width="2" stroke="black" marker-end="url(#arrowhead)" style="fill: none;"/></g><g><text x="75" y="528" class="messageText" style="text-anchor: middle;">Read Input</text><path d="M 75,535 C 135,525 135,565 75,555" class="messageLine0" stroke-width="2" stroke="black" marker-end="url(#arrowhead)" style="fill: none;"/></g><g><text x="175" y="618" class="messageText" style="text-anchor: middle;">p.Roll()</text><line x1="75" y1="625" x2="275" y2="625" class="messageLine0" stroke-width="2" stroke="black" marker-end="url(#arrowhead)" style="fill: none;"/></g><g><rect x="70" y="627" fill="#f4f4f4" stroke="#666" width="10" height="473" rx="0" ry="0"/></g><g><text x="375" y="653" class="messageText" style="text-anchor: middle;">t.Roll()</text><line x1="275" y1="660" x2="475" y2="660" class="messageLine0" stroke-width="2" stroke="black" marker-end="url(#arrowhead)" style="fill: none;"/></g><g><rect x="270" y="662" fill="#f4f4f4" stroke="#666" width="10" height="303" rx="0" ry="0"/></g><g><text x="575" y="688" class="messageText" style="text-anchor: middle;">dice.Roll()</text><line x1="475" y1="695" x2="675" y2="695" class="messageLine0" stroke-width="2" stroke="black" marker-end="url(#arrowhead)" style="fill: none;"/></g><g><rect x="470" y="697" fill="#f4f4f4" stroke="#666" width="10" height="133" rx="0" ry="0"/></g><g><text x="775" y="723" class="messageText" style="text-anchor: middle;">dice.die1.Roll()</text><line x1="675" y1="730" x2="875" y2="730" class="messageLine0" stroke-width="2" stroke="black" marker-end="url(#arrowhead)" style="fill: none;"/></g><g><text x="775" y="758" class="messageText" style="text-anchor: middle;">dice.die2.Roll()</text><line x1="675" y1="765" x2="875" y2="765" class="messageLine0" stroke-width="2" stroke="black" marker-end="url(#arrowhead)" style="fill: none;"/></g><g><text x="675" y="793" class="messageText" style="text-anchor: middle;">Update State</text><path d="M 675,800 C 735,790 735,830 675,820" class="messageLine0" stroke-width="2" stroke="black" marker-end="url(#arrowhead)" style="fill: none;"/></g><g><text x="575" y="858" class="messageText" style="text-anchor: middle;">Read dice.State</text><line x1="475" y1="865" x2="675" y2="865" class="messageLine0" stroke-width="2" stroke="black" marker-end="url(#arrowhead)" style="fill: none;"/></g><g><text x="575" y="893" class="messageText" style="text-anchor: middle;">diceState</text><line x1="675" y1="900" x2="475" y2="900" class="messageLine0" stroke-width="2" stroke="black" marker-end="url(#arrowhead)" style="fill: none;"/></g><g><text x="475" y="928" class="messageText" style="text-anchor: middle;">update score, penalty, and state</text><path d="M 475,935 C 535,925 535,965 475,955" class="messageLine0" stroke-width="2" stroke="black" marker-end="url(#arrowhead)" style="fill: none;"/></g><g><text x="375" y="993" class="messageText" style="text-anchor: middle;">t.State()</text><line x1="275" y1="1000" x2="475" y2="1000" class="messageLine0" stroke-width="2" stroke="black" marker-end="url(#arrowhead)" style="fill: none;"/></g><g><text x="375" y="1028" class="messageText" style="text-anchor: middle;">turnstate</text><line x1="475" y1="1035" x2="275" y2="1035" class="messageLine0" stroke-width="2" stroke="black" marker-end="url(#arrowhead)" style="fill: none;"/></g><g><text x="275" y="1063" class="messageText" style="text-anchor: middle;">Update score, chips, and state</text><path d="M 275,1070 C 335,1060 335,1100 275,1090" class="messageLine0" stroke-width="2" stroke="black" marker-end="url(#arrowhead)" style="fill: none;"/></g><g><text x="175" y="1148" class="messageText" style="text-anchor: middle;">p.Pass()</text><line x1="75" y1="1155" x2="275" y2="1155" class="messageLine0" stroke-width="2" stroke="black" marker-end="url(#arrowhead)" style="fill: none;"/></g><g><rect x="70" y="1157" fill="#f4f4f4" stroke="#666" width="10" height="233" rx="0" ry="0"/></g><g><text x="375" y="1183" class="messageText" style="text-anchor: middle;">t.Pass()</text><line x1="275" y1="1190" x2="475" y2="1190" class="messageLine0" stroke-width="2" stroke="black" marker-end="url(#arrowhead)" style="fill: none;"/></g><g><rect x="270" y="1192" fill="#f4f4f4" stroke="#666" width="10" height="63" rx="0" ry="0"/></g><g><text x="475" y="1218" class="messageText" style="text-anchor: middle;">Update State</text><path d="M 475,1225 C 535,1215 535,1255 475,1245" class="messageLine0" stroke-width="2" stroke="black" marker-end="url(#arrowhead)" style="fill: none;"/></g><g><text x="375" y="1283" class="messageText" style="text-anchor: middle;">t.State()</text><line x1="275" y1="1290" x2="475" y2="1290" class="messageLine0" stroke-width="2" stroke="black" marker-end="url(#arrowhead)" style="fill: none;"/></g><g><text x="375" y="1318" class="messageText" style="text-anchor: middle;">turnstate</text><line x1="475" y1="1325" x2="275" y2="1325" class="messageLine0" stroke-width="2" stroke="black" marker-end="url(#arrowhead)" style="fill: none;"/></g><g><text x="275" y="1353" class="messageText" style="text-anchor: middle;">Update score, chips, and state</text><path d="M 275,1360 C 335,1350 335,1390 275,1380" class="messageLine0" stroke-width="2" stroke="black" marker-end="url(#arrowhead)" style="fill: none;"/></g><g><line x1="60" y1="575" x2="885" y2="575" stroke-width="2" stroke="#526e52" class="loopLine"/><line x1="885" y1="575" x2="885" y2="1400" stroke-width="2" stroke="#526e52" class="loopLine"/><line x1="60" y1="1400" x2="885" y2="1400" stroke-width="2" stroke="#526e52" class="loopLine"/><line x1="60" y1="575" x2="60" y2="1400" stroke-width="2" stroke="#526e52" class="loopLine"/><line x1="60" y1="1110" x2="885" y2="1110" stroke-width="2" stroke="#526e52" class="loopLine"/><rect x="60" y="575" fill="#526e52" stroke="none" width="50" height="20" rx="0" ry="0" class="labelBox"/><text x="67.5" y="590" fill="white" class="labelText"><tspan x="67.5">alt</tspan></text><text x="472.5" y="590" fill="black" class="loopText" style="text-anchor: middle;"><tspan x="472.5">[ input == 'r' ]</tspan></text><text x="472.5" y="1125" fill="black" class="loopText" style="text-anchor: middle;"><tspan x="472.5">[ input == 'p' ]</tspan></text></g><g><line x1="-35" y1="485" x2="895" y2="485" stroke-width="2" stroke="#526e52" class="loopLine"/><line x1="895" y1="485" x2="895" y2="1410" stroke-width="2" stroke="#526e52" class="loopLine"/><line x1="-35" y1="1410" x2="895" y2="1410" stroke-width="2" stroke="#526e52" class="loopLine"/><line x1="-35" y1="485" x2="-35" y2="1410" stroke-width="2" stroke="#526e52" class="loopLine"/><rect x="-35" y="485" fill="#526e52" stroke="none" width="50" height="20" rx="0" ry="0" class="labelBox"/><text x="-27.5" y="500" fill="white" class="labelText"><tspan x="-27.5">loop</tspan></text><text x="430" y="500" fill="black" class="loopText" style="text-anchor: middle;"><tspan x="430">[ p.GetLastState() != CompleteTurn &amp;&amp; p.GetLastState() != CompleteEndgame ]</tspan></text></g><g><line x1="-45" y1="145" x2="905" y2="145" stroke-width="2" stroke="#526e52" class="loopLine"/><line x1="905" y1="145" x2="905" y2="1420" stroke-width="2" stroke="#526e52" class="loopLine"/><line x1="-45" y1="1420" x2="905" y2="1420" stroke-width="2" stroke="#526e52" class="loopLine"/><line x1="-45" y1="145" x2="-45" y2="1420" stroke-width="2" stroke="#526e52" class="loopLine"/><rect x="-45" y="145" fill="#526e52" stroke="none" width="50" height="20" rx="0" ry="0" class="labelBox"/><text x="-37.5" y="160" fill="white" class="labelText"><tspan x="-37.5">loop</tspan></text><text x="430" y="160" fill="black" class="loopText" style="text-anchor: middle;"><tspan x="430">[ p.GetLastState() != CompleteEndgame &amp;&amp; p.GetLastChips() &gt; 0 ]</tspan></text></g><g><rect x="0" y="1440" fill="#eaeaea" stroke="#666" width="150" height="65" rx="3" ry="3" class="actor"/><text x="75" y="1472.5" dominant-baseline="central" alignment-baseline="central" class="actor" style="text-anchor: middle;"><tspan x="75" dy="0">SkunkApp</tspan></text></g><g><rect x="200" y="1440" fill="#eaeaea" stroke="#666" width="150" height="65" rx="3" ry="3" class="actor"/><text x="275" y="1472.5" dominant-baseline="central" alignment-baseline="central" class="actor" style="text-anchor: middle;"><tspan x="275" dy="0">Player</tspan></text></g><g><rect x="400" y="1440" fill="#eaeaea" stroke="#666" width="150" height="65" rx="3" ry="3" class="actor"/><text x="475" y="1472.5" dominant-baseline="central" alignment-baseline="central" class="actor" style="text-anchor: middle;"><tspan x="475" dy="0">Turn</tspan></text></g><g><rect x="600" y="1440" fill="#eaeaea" stroke="#666" width="150" height="65" rx="3" ry="3" class="actor"/><text x="675" y="1472.5" dominant-baseline="central" alignment-baseline="central" class="actor" style="text-anchor: middle;"><tspan x="675" dy="0">Dice</tspan></text></g><g><rect x="800" y="1440" fill="#eaeaea" stroke="#666" width="150" height="65" rx="3" ry="3" class="actor"/><text x="875" y="1472.5" dominant-baseline="central" alignment-baseline="central" class="actor" style="text-anchor: middle;"><tspan x="875" dy="0">Die</tspan></text></g></svg>
